<svg width="144" height="144" viewBox="0 0 144 144" fill="none" xmlns="http://www.w3.org/2000/svg">
<circle cx="72" cy="72" r="72" fill="white"/>
<path d="M64.8182 45C64.1932 43.0871 63.3693 41.3731 62.3466 39.858C61.3428 38.3239 60.1402 37.017 58.7386 35.9375C57.3561 34.858 55.7841 34.0341 54.0227 33.4659C52.2614 32.8977 50.3295 32.6136 48.2273 32.6136C44.7803 32.6136 41.6458 33.5038 38.8239 35.2841C36.0019 37.0644 33.7576 39.6875 32.0909 43.1534C30.4242 46.6193 29.5909 50.8712 29.5909 55.9091C29.5909 60.947 30.4337 65.1989 32.1193 68.6648C33.8049 72.1307 36.0871 74.7538 38.9659 76.5341C41.8447 78.3144 45.0833 79.2045 48.6818 79.2045C52.0152 79.2045 54.9508 78.4943 57.4886 77.0739C60.0455 75.6345 62.0341 73.608 63.4545 70.9943C64.8939 68.3617 65.6136 65.2652 65.6136 61.7045L67.7727 62.1591H50.2727V55.9091H72.4318V62.1591C72.4318 66.9508 71.4091 71.1174 69.3636 74.6591C67.3371 78.2008 64.5341 80.947 60.9545 82.8977C57.3939 84.8295 53.303 85.7955 48.6818 85.7955C43.5303 85.7955 39.0038 84.5833 35.1023 82.1591C31.2197 79.7348 28.1894 76.2879 26.0114 71.8182C23.8523 67.3485 22.7727 62.0455 22.7727 55.9091C22.7727 51.3068 23.3883 47.1686 24.6193 43.4943C25.8693 39.8011 27.6307 36.6572 29.9034 34.0625C32.1761 31.4678 34.8655 29.4792 37.9716 28.0966C41.0777 26.714 44.4962 26.0227 48.2273 26.0227C51.2955 26.0227 54.1553 26.4867 56.8068 27.4148C59.4773 28.3239 61.8542 29.6212 63.9375 31.3068C66.0398 32.9735 67.7917 34.9716 69.1932 37.3011C70.5947 39.6117 71.5606 42.178 72.0909 45H64.8182Z" fill="#F77D63"/>
<path d="M58.8182 45C58.1932 43.0871 57.3693 41.3731 56.3466 39.858C55.3428 38.3239 54.1402 37.017 52.7386 35.9375C51.3561 34.858 49.7841 34.0341 48.0227 33.4659C46.2614 32.8977 44.3295 32.6136 42.2273 32.6136C38.7803 32.6136 35.6458 33.5038 32.8239 35.2841C30.0019 37.0644 27.7576 39.6875 26.0909 43.1534C24.4242 46.6193 23.5909 50.8712 23.5909 55.9091C23.5909 60.947 24.4337 65.1989 26.1193 68.6648C27.8049 72.1307 30.0871 74.7538 32.9659 76.5341C35.8447 78.3144 39.0833 79.2045 42.6818 79.2045C46.0152 79.2045 48.9508 78.4943 51.4886 77.0739C54.0455 75.6345 56.0341 73.608 57.4545 70.9943C58.8939 68.3617 59.6136 65.2652 59.6136 61.7045L61.7727 62.1591H44.2727V55.9091H66.4318V62.1591C66.4318 66.9508 65.4091 71.1174 63.3636 74.6591C61.3371 78.2008 58.5341 80.947 54.9545 82.8977C51.3939 84.8295 47.303 85.7955 42.6818 85.7955C37.5303 85.7955 33.0038 84.5833 29.1023 82.1591C25.2197 79.7348 22.1894 76.2879 20.0114 71.8182C17.8523 67.3485 16.7727 62.0455 16.7727 55.9091C16.7727 51.3068 17.3883 47.1686 18.6193 43.4943C19.8693 39.8011 21.6307 36.6572 23.9034 34.0625C26.1761 31.4678 28.8655 29.4792 31.9716 28.0966C35.0777 26.714 38.4962 26.0227 42.2273 26.0227C45.2955 26.0227 48.1553 26.4867 50.8068 27.4148C53.4773 28.3239 55.8542 29.6212 57.9375 31.3068C60.0398 32.9735 61.7917 34.9716 63.1932 37.3011C64.5947 39.6117 65.5606 42.178 66.0909 45H58.8182Z" fill="#FF89B9"/>
<path d="M52.8182 45C52.1932 43.0871 51.3693 41.3731 50.3466 39.858C49.3428 38.3239 48.1402 37.017 46.7386 35.9375C45.3561 34.858 43.7841 34.0341 42.0227 33.4659C40.2614 32.8977 38.3295 32.6136 36.2273 32.6136C32.7803 32.6136 29.6458 33.5038 26.8239 35.2841C24.0019 37.0644 21.7576 39.6875 20.0909 43.1534C18.4242 46.6193 17.5909 50.8712 17.5909 55.9091C17.5909 60.947 18.4337 65.1989 20.1193 68.6648C21.8049 72.1307 24.0871 74.7538 26.9659 76.5341C29.8447 78.3144 33.0833 79.2045 36.6818 79.2045C40.0152 79.2045 42.9508 78.4943 45.4886 77.0739C48.0455 75.6345 50.0341 73.608 51.4545 70.9943C52.8939 68.3617 53.6136 65.2652 53.6136 61.7045L55.7727 62.1591H38.2727V55.9091H60.4318V62.1591C60.4318 66.9508 59.4091 71.1174 57.3636 74.6591C55.3371 78.2008 52.5341 80.947 48.9545 82.8977C45.3939 84.8295 41.303 85.7955 36.6818 85.7955C31.5303 85.7955 27.0038 84.5833 23.1023 82.1591C19.2197 79.7348 16.1894 76.2879 14.0114 71.8182C11.8523 67.3485 10.7727 62.0455 10.7727 55.9091C10.7727 51.3068 11.3883 47.1686 12.6193 43.4943C13.8693 39.8011 15.6307 36.6572 17.9034 34.0625C20.1761 31.4678 22.8655 29.4792 25.9716 28.0966C29.0777 26.714 32.4962 26.0227 36.2273 26.0227C39.2955 26.0227 42.1553 26.4867 44.8068 27.4148C47.4773 28.3239 49.8542 29.6212 51.9375 31.3068C54.0398 32.9735 55.7917 34.9716 57.1932 37.3011C58.5947 39.6117 59.5606 42.178 60.0909 45H52.8182Z" fill="#FEDEE3"/>
<path d="M52.8182 45C52.1932 43.0871 51.3693 41.3731 50.3466 39.858C49.3428 38.3239 48.1402 37.017 46.7386 35.9375C45.3561 34.858 43.7841 34.0341 42.0227 33.4659C40.2614 32.8977 38.3295 32.6136 36.2273 32.6136C32.7803 32.6136 29.6458 33.5038 26.8239 35.2841C24.0019 37.0644 21.7576 39.6875 20.0909 43.1534C18.4242 46.6193 17.5909 50.8712 17.5909 55.9091C17.5909 60.947 18.4337 65.1989 20.1193 68.6648C21.8049 72.1307 24.0871 74.7538 26.9659 76.5341C29.8447 78.3144 33.0833 79.2045 36.6818 79.2045C40.0152 79.2045 42.9508 78.4943 45.4886 77.0739C48.0455 75.6345 50.0341 73.608 51.4545 70.9943C52.8939 68.3617 53.6136 65.2652 53.6136 61.7045L55.7727 62.1591H38.2727V55.9091H60.4318V62.1591C60.4318 66.9508 59.4091 71.1174 57.3636 74.6591C55.3371 78.2008 52.5341 80.947 48.9545 82.8977C45.3939 84.8295 41.303 85.7955 36.6818 85.7955C31.5303 85.7955 27.0038 84.5833 23.1023 82.1591C19.2197 79.7348 16.1894 76.2879 14.0114 71.8182C11.8523 67.3485 10.7727 62.0455 10.7727 55.9091C10.7727 51.3068 11.3883 47.1686 12.6193 43.4943C13.8693 39.8011 15.6307 36.6572 17.9034 34.0625C20.1761 31.4678 22.8655 29.4792 25.9716 28.0966C29.0777 26.714 32.4962 26.0227 36.2273 26.0227C39.2955 26.0227 42.1553 26.4867 44.8068 27.4148C47.4773 28.3239 49.8542 29.6212 51.9375 31.3068C54.0398 32.9735 55.7917 34.9716 57.1932 37.3011C58.5947 39.6117 59.5606 42.178 60.0909 45H52.8182Z" fill="#FEDEE3"/>
<path d="M66.0455 56.8182H74.4545L94.2273 105.114H94.9091L114.682 56.8182H123.091V115H116.5V70.7955H115.932L97.75 115H91.3864L73.2045 70.7955H72.6364V115H66.0455V56.8182Z" fill="#F97957"/>
<path d="M62.0455 56.8182H70.4545L90.2273 105.114H90.9091L110.682 56.8182H119.091V115H112.5V70.7955H111.932L93.75 115H87.3864L69.2045 70.7955H68.6364V115H62.0455V56.8182Z" fill="#FF89B9"/>
<path d="M59.0455 56.8182H67.4545L87.2273 105.114H87.9091L107.682 56.8182H116.091V115H109.5V70.7955H108.932L90.75 115H84.3864L66.2045 70.7955H65.6364V115H59.0455V56.8182Z" fill="#FEDEE3"/>
</svg>
